<?xml version="1.0" encoding="utf-8"?><!-- Uploaded to: SVG Repo, www.svgrepo.com, Generator: SVG Repo Mixer Tools -->
<svg width="800px" height="800px" viewBox="0 0 24 24" fill="none" xmlns="http://www.w3.org/2000/svg">
<path fill-rule="evenodd" clip-rule="evenodd" d="M12.5 6.00004C12.5 5.31322 12.2163 4.67366 11.7431 4.25578C11.2602 3.82926 10.5847 3.64296 9.87881 3.88387C9.12643 4.14065 8.27977 4.57906 7.61885 5.33233C7.12428 5.89599 6.74984 6.61798 6.58793 7.53045C5.74098 7.65664 5.00843 8.16524 4.47868 8.87157C3.86487 9.68999 3.5 10.7977 3.5 12C3.5 13.2023 3.86487 14.31 4.47868 15.1284C4.99276 15.8139 5.69782 16.3131 6.51308 16.4574C6.50452 16.494 6.5 16.5322 6.5 16.5715C6.5 17.7099 6.9821 18.5424 7.66175 19.1267C8.32466 19.6965 9.1633 20.0221 9.89841 20.212C11.366 20.5912 12.5 19.3418 12.5 18V6.00004ZM7.48691 16.4573C7.49547 16.494 7.5 16.5322 7.5 16.5715C7.5 17.3882 7.83089 17.9534 8.31361 18.3683C8.81308 18.7977 9.48618 19.0727 10.1486 19.2438C10.8199 19.4173 11.5 18.8674 11.5 18V6.00004C11.5 5.58229 11.3265 5.22198 11.0812 5.00533C10.8456 4.79731 10.5413 4.71442 10.2018 4.83027C9.55295 5.05172 8.87946 5.41182 8.37053 5.99186C7.87016 6.56214 7.5 7.37709 7.5 8.57147C7.5 8.84761 7.27614 9.07147 7 9.07147C6.72388 9.07147 6.50003 8.84764 6.5 8.57152C6.04804 8.70228 5.62513 9.00964 5.27868 9.47157C4.80671 10.1009 4.5 10.9932 4.5 12C4.5 13.0068 4.80671 13.8991 5.27868 14.5284C5.75054 15.1576 6.36424 15.5 7 15.5C7.59053 15.5 8.15996 15.2055 8.61676 14.6603C8.79412 14.4487 9.10948 14.4209 9.32114 14.5982C9.53279 14.7756 9.5606 15.091 9.38324 15.3026C8.88463 15.8976 8.23125 16.3255 7.48691 16.4573Z" fill="#47495F"/>
<path fill-rule="evenodd" clip-rule="evenodd" d="M16.55 11.5H14.5C14.2239 11.5 14 11.7239 14 12C14 12.2761 14.2239 12.5 14.5 12.5H16.55C16.7816 13.6411 17.7905 14.5 19 14.5C20.3807 14.5 21.5 13.3807 21.5 12C21.5 10.6193 20.3807 9.5 19 9.5C17.7905 9.5 16.7816 10.3589 16.55 11.5ZM17.5 11.9963C17.502 11.1695 18.1728 10.5 19 10.5C19.8284 10.5 20.5 11.1716 20.5 12C20.5 12.8284 19.8284 13.5 19 13.5C18.1728 13.5 17.502 12.8305 17.5 12.0037L17.5 12L17.5 11.9963Z" fill="#47495F"/>
<path fill-rule="evenodd" clip-rule="evenodd" d="M17.3385 16.132C17.7802 15.7388 18.3622 15.5 19 15.5C20.3807 15.5 21.5 16.6193 21.5 18C21.5 19.3807 20.3807 20.5 19 20.5C17.6193 20.5 16.5 19.3807 16.5 18C16.5 17.6162 16.5865 17.2527 16.741 16.9277C16.7227 16.9166 16.7049 16.9042 16.6877 16.8904L14.1877 14.8904C13.972 14.7179 13.9371 14.4033 14.1096 14.1877C14.2821 13.972 14.5967 13.9371 14.8124 14.1096L17.3124 16.1096C17.3214 16.1168 17.3301 16.1243 17.3385 16.132ZM19 16.5C18.1716 16.5 17.5 17.1716 17.5 18C17.5 18.8284 18.1716 19.5 19 19.5C19.8284 19.5 20.5 18.8284 20.5 18C20.5 17.1716 19.8284 16.5 19 16.5Z" fill="#47495F"/>
<path fill-rule="evenodd" clip-rule="evenodd" d="M19 3.5C17.6193 3.5 16.5 4.61929 16.5 6C16.5 6.38376 16.5865 6.74733 16.741 7.07228C16.7227 7.08341 16.7049 7.09584 16.6877 7.10958L14.1877 9.10958C13.972 9.28209 13.9371 9.59674 14.1096 9.81237C14.2821 10.028 14.5967 10.063 14.8124 9.89045L17.3124 7.89045C17.3214 7.88323 17.3301 7.87575 17.3385 7.86804C17.7802 8.26116 18.3622 8.5 19 8.5C20.3807 8.5 21.5 7.38071 21.5 6C21.5 4.61929 20.3807 3.5 19 3.5ZM17.5 6C17.5 5.17157 18.1716 4.5 19 4.5C19.8284 4.5 20.5 5.17157 20.5 6C20.5 6.82843 19.8284 7.5 19 7.5C18.1716 7.5 17.5 6.82843 17.5 6Z" fill="#47495F"/>
</svg>